<?xml version="1.0" encoding="utf-8"?>
<!-- Generator: Adobe Illustrator 17.0.0, SVG Export Plug-In . SVG Version: 6.00 Build 0)  -->
<!DOCTYPE svg PUBLIC "-//W3C//DTD SVG 1.1//EN" "http://www.w3.org/Graphics/SVG/1.1/DTD/svg11.dtd">
<svg version="1.1" id="图层_1" xmlns="http://www.w3.org/2000/svg" xmlns:xlink="http://www.w3.org/1999/xlink" x="0px" y="0px"
	 width="132px" height="93px" viewBox="0 0 132 93" enable-background="new 0 0 132 93" xml:space="preserve">
<g>
	<path fill="#008CD6" d="M102.403,30.277L68.718,85.488h29.357c15.757,0,28.53-12.436,28.53-27.773
		C126.605,43.81,116.104,32.307,102.403,30.277z"/>
	<path fill="#00AFDD" d="M98.652,29.912C95.474,16.167,82.783,5.743,67.352,4.98v76.237L98.652,29.912z"/>
	<path fill="#008CD6" d="M63.962,4.964c-15.419,0.661-28.139,10.97-31.458,24.627L63.962,81.15V4.964z"/>
	<path fill="#00AFDD" d="M4.362,57.715c0,15.337,12.774,27.773,28.532,27.773h29.741L28.919,30.225
		C15.045,32.108,4.362,43.69,4.362,57.715z"/>
</g>
</svg>
